<?xml version="1.0" encoding="utf-8"?>
<!-- Generator: Adobe Illustrator 24.1.1, SVG Export Plug-In . SVG Version: 6.00 Build 0)  -->
<svg version="1.1" id="Layer_1" xmlns="http://www.w3.org/2000/svg" xmlns:xlink="http://www.w3.org/1999/xlink" x="0px" y="0px"
	 viewBox="0 0 56.7 56.7" style="enable-background:new 0 0 56.7 56.7;" xml:space="preserve">
<style type="text/css">
	.st0{fill:#6666FF;}
	.st1{fill:#E3E8FF;}
</style>
<path class="st0" d="M28.3,0C12.7,0,0,12.7,0,28.4C0,44,12.7,56.7,28.3,56.7C44,56.7,56.8,44,56.8,28.4C56.8,12.7,44,0,28.3,0z
	 M36,28.2h-5c0,7.8,0,17.5,0,17.5h-7.3c0,0,0-9.6,0-17.5h-3.5V22h3.5v-4c0-2.9,1.4-7.4,7.4-7.4h5.4v6c0,0-3.2,0-3.9,0
	c-0.7,0-1.5,0.3-1.5,1.7V22h5.5L36,28.2z"/>
<path class="st1" d="M36.7,22L36,28.2h-5c0,7.8,0,17.5,0,17.5h-7.3c0,0,0-9.6,0-17.5h-3.5V22h3.5v-4c0-2.9,1.4-7.4,7.4-7.4h5.4v6
	c0,0-3.2,0-3.9,0c-0.7,0-1.5,0.3-1.5,1.7V22H36.7z"/>
</svg>
