<?xml version="1.0" encoding="utf-8"?>
<!-- Generator: Adobe Illustrator 24.1.1, SVG Export Plug-In . SVG Version: 6.00 Build 0)  -->
<svg version="1.1" id="Capa_2" xmlns="http://www.w3.org/2000/svg" xmlns:xlink="http://www.w3.org/1999/xlink" x="0px" y="0px"
	 viewBox="0 0 56.7 56.7" style="enable-background:new 0 0 56.7 56.7;" xml:space="preserve">
<style type="text/css">
	.st0{fill:#FF4040;}
	.st1{fill:#E6FFE6;}
</style>
<g id="XMLID_1442_">
	<path class="st0" d="M48.4,8.3C43.3,3.2,36.2,0,28.3,0c-7.8,0-14.9,3.2-20,8.3S0,20.5,0,28.4C0,44,12.7,56.7,28.3,56.7
		c7.8,0,14.9-3.2,20.1-8.3s8.3-12.2,8.3-20C56.7,20.5,53.5,13.4,48.4,8.3z M20.7,40.7c-6.8,0-12.3-5.5-12.3-12.3
		c0-6.8,5.5-12.3,12.3-12.3c3.4,0,6.4,1.4,8.6,3.5l-2.5,2.2c-1.6-1.5-3.8-2.4-6.1-2.4c-5,0-9,4-9,9c0,5,4,9,9,9
		c3.8,0,6.6-2.5,7.5-6.5h-7.7l0-3.3h11.5l0,1.3C31.9,35.7,27.2,40.7,20.7,40.7z M48.4,30.8h-4.7v4.7h-3v-4.7h-4.7v-3h4.7V23h3v4.7
		h4.7V30.8z"/>
	<g id="XMLID_1443_">
		<path class="st1" d="M31.9,28.9c0,6.8-4.7,11.8-11.3,11.8c-6.8,0-12.3-5.5-12.3-12.3c0-6.8,5.5-12.3,12.3-12.3
			c3.4,0,6.4,1.4,8.6,3.5l-2.5,2.2c-1.6-1.5-3.8-2.4-6.1-2.4c-5,0-9,4-9,9c0,5,4,9,9,9c3.8,0,6.6-2.5,7.5-6.5h-7.7l0-3.3h11.5
			L31.9,28.9z"/>
		<polygon class="st1" points="48.4,27.7 48.4,30.8 43.6,30.8 43.6,35.5 40.6,35.5 40.6,30.8 35.9,30.8 35.9,27.7 40.6,27.7 
			40.6,23 43.6,23 43.6,27.7 		"/>
	</g>
</g>
</svg>
