<?xml version="1.0" encoding="utf-8"?>
<!-- Generator: Adobe Illustrator 24.1.1, SVG Export Plug-In . SVG Version: 6.00 Build 0)  -->
<svg version="1.1" id="Layer_1" xmlns="http://www.w3.org/2000/svg" xmlns:xlink="http://www.w3.org/1999/xlink" x="0px" y="0px"
	 viewBox="0 0 56.7 56.7" style="enable-background:new 0 0 56.7 56.7;" xml:space="preserve">
<style type="text/css">
	.st0{fill-rule:evenodd;clip-rule:evenodd;fill:#B466FF;}
	.st1{fill-rule:evenodd;clip-rule:evenodd;fill:#EBFFEB;}
</style>
<path class="st0" d="M28.3,22.4c-3.4,0-6,2.7-6,6c0,3.4,2.7,6,6,6c3.2,0,5.9-2.8,6-6C34.3,25,31.7,22.4,28.3,22.4z M28.3,22.4
	c-3.4,0-6,2.7-6,6c0,3.4,2.7,6,6,6c3.2,0,5.9-2.8,6-6C34.3,25,31.7,22.4,28.3,22.4z M28.3,22.4c-3.4,0-6,2.7-6,6c0,3.4,2.7,6,6,6
	c3.2,0,5.9-2.8,6-6C34.3,25,31.7,22.4,28.3,22.4z M28.3,22.4c-3.4,0-6,2.7-6,6c0,3.4,2.7,6,6,6c3.2,0,5.9-2.8,6-6
	C34.3,25,31.7,22.4,28.3,22.4z M42.8,21.2c-0.1-1.7-0.3-2.7-0.6-3.3c-0.5-0.8-0.8-1.5-1.3-2c-0.6-0.7-1.2-1-2-1.3
	c-0.6-0.2-1.5-0.5-3.3-0.6c-1.9-0.1-2.5-0.1-7.2-0.1c-4.7,0-5.3,0-7.2,0.1c-1.7,0.1-2.7,0.3-3.3,0.6c-0.8,0.5-1.5,0.8-2,1.3
	c-0.7,0.6-1,1.2-1.3,2c-0.2,0.6-0.5,1.5-0.6,3.3c-0.1,1.9-0.1,2.5-0.1,7.2c0,4.7,0,5.3,0.1,7.2c0.1,1.7,0.3,2.7,0.6,3.3
	c0.5,0.8,0.8,1.5,1.3,2c0.6,0.7,1.2,1,2,1.3c0.6,0.2,1.5,0.5,3.3,0.6c1.9,0.1,2.5,0.1,7.2,0.1c4.7,0,5.3,0,7.2-0.1
	c1.7-0.1,2.7-0.3,3.3-0.6c0.8-0.5,1.5-0.8,2-1.3c0.7-0.6,1-1.2,1.3-2c0.2-0.6,0.5-1.5,0.6-3.3c0.1-1.9,0.1-2.5,0.1-7.2
	C42.9,23.6,42.9,23.1,42.8,21.2z M28.3,37.5c-5.1,0-9.1-4-9.1-9.1s4-9.1,9.1-9.1c5,0,9.1,4.1,9.1,9.1S33.4,37.5,28.3,37.5z M37.8,21
	c-1.2,0-2.1-0.9-2.1-2.1s0.9-2.1,2.1-2.1c1.1,0,2.1,1,2.1,2.1C39.9,20.1,39,21,37.8,21z M28.3,22.4c-3.4,0-6,2.7-6,6
	c0,3.4,2.7,6,6,6c3.2,0,5.9-2.8,6-6C34.3,25,31.7,22.4,28.3,22.4z M28.3,22.4c-3.4,0-6,2.7-6,6c0,3.4,2.7,6,6,6c3.2,0,5.9-2.8,6-6
	C34.3,25,31.7,22.4,28.3,22.4z M28.3,22.4c-3.4,0-6,2.7-6,6c0,3.4,2.7,6,6,6c3.2,0,5.9-2.8,6-6C34.3,25,31.7,22.4,28.3,22.4z
	 M28.3,22.4c-3.4,0-6,2.7-6,6c0,3.4,2.7,6,6,6c3.2,0,5.9-2.8,6-6C34.3,25,31.7,22.4,28.3,22.4z M28.3,22.4c-3.4,0-6,2.7-6,6
	c0,3.4,2.7,6,6,6c3.2,0,5.9-2.8,6-6C34.3,25,31.7,22.4,28.3,22.4z M42.8,21.2c-0.1-1.7-0.3-2.7-0.6-3.3c-0.5-0.8-0.8-1.5-1.3-2
	c-0.6-0.7-1.2-1-2-1.3c-0.6-0.2-1.5-0.5-3.3-0.6c-1.9-0.1-2.5-0.1-7.2-0.1c-4.7,0-5.3,0-7.2,0.1c-1.7,0.1-2.7,0.3-3.3,0.6
	c-0.8,0.5-1.5,0.8-2,1.3c-0.7,0.6-1,1.2-1.3,2c-0.2,0.6-0.5,1.5-0.6,3.3c-0.1,1.9-0.1,2.5-0.1,7.2c0,4.7,0,5.3,0.1,7.2
	c0.1,1.7,0.3,2.7,0.6,3.3c0.5,0.8,0.8,1.5,1.3,2c0.6,0.7,1.2,1,2,1.3c0.6,0.2,1.5,0.5,3.3,0.6c1.9,0.1,2.5,0.1,7.2,0.1
	c4.7,0,5.3,0,7.2-0.1c1.7-0.1,2.7-0.3,3.3-0.6c0.8-0.5,1.5-0.8,2-1.3c0.7-0.6,1-1.2,1.3-2c0.2-0.6,0.5-1.5,0.6-3.3
	c0.1-1.9,0.1-2.5,0.1-7.2C42.9,23.6,42.9,23.1,42.8,21.2z M28.3,37.5c-5.1,0-9.1-4-9.1-9.1s4-9.1,9.1-9.1c5,0,9.1,4.1,9.1,9.1
	S33.4,37.5,28.3,37.5z M37.8,21c-1.2,0-2.1-0.9-2.1-2.1s0.9-2.1,2.1-2.1c1.1,0,2.1,1,2.1,2.1C39.9,20.1,39,21,37.8,21z M28.3,22.4
	c-3.4,0-6,2.7-6,6c0,3.4,2.7,6,6,6c3.2,0,5.9-2.8,6-6C34.3,25,31.7,22.4,28.3,22.4z M28.3,22.4c-3.4,0-6,2.7-6,6c0,3.4,2.7,6,6,6
	c3.2,0,5.9-2.8,6-6C34.3,25,31.7,22.4,28.3,22.4z M28.3,22.4c-3.4,0-6,2.7-6,6c0,3.4,2.7,6,6,6c3.2,0,5.9-2.8,6-6
	C34.3,25,31.7,22.4,28.3,22.4z M28.3,22.4c-3.4,0-6,2.7-6,6c0,3.4,2.7,6,6,6c3.2,0,5.9-2.8,6-6C34.3,25,31.7,22.4,28.3,22.4z
	 M28.3,22.4c-3.4,0-6,2.7-6,6c0,3.4,2.7,6,6,6c3.2,0,5.9-2.8,6-6C34.3,25,31.7,22.4,28.3,22.4z M42.8,21.2c-0.1-1.7-0.3-2.7-0.6-3.3
	c-0.5-0.8-0.8-1.5-1.3-2c-0.6-0.7-1.2-1-2-1.3c-0.6-0.2-1.5-0.5-3.3-0.6c-1.9-0.1-2.5-0.1-7.2-0.1c-4.7,0-5.3,0-7.2,0.1
	c-1.7,0.1-2.7,0.3-3.3,0.6c-0.8,0.5-1.5,0.8-2,1.3c-0.7,0.6-1,1.2-1.3,2c-0.2,0.6-0.5,1.5-0.6,3.3c-0.1,1.9-0.1,2.5-0.1,7.2
	c0,4.7,0,5.3,0.1,7.2c0.1,1.7,0.3,2.7,0.6,3.3c0.5,0.8,0.8,1.5,1.3,2c0.6,0.7,1.2,1,2,1.3c0.6,0.2,1.5,0.5,3.3,0.6
	c1.9,0.1,2.5,0.1,7.2,0.1c4.7,0,5.3,0,7.2-0.1c1.7-0.1,2.7-0.3,3.3-0.6c0.8-0.5,1.5-0.8,2-1.3c0.7-0.6,1-1.2,1.3-2
	c0.2-0.6,0.5-1.5,0.6-3.3c0.1-1.9,0.1-2.5,0.1-7.2C42.9,23.6,42.9,23.1,42.8,21.2z M28.3,37.5c-5.1,0-9.1-4-9.1-9.1s4-9.1,9.1-9.1
	c5,0,9.1,4.1,9.1,9.1S33.4,37.5,28.3,37.5z M37.8,21c-1.2,0-2.1-0.9-2.1-2.1s0.9-2.1,2.1-2.1c1.1,0,2.1,1,2.1,2.1
	C39.9,20.1,39,21,37.8,21z M28.3,22.4c-3.4,0-6,2.7-6,6c0,3.4,2.7,6,6,6c3.2,0,5.9-2.8,6-6C34.3,25,31.7,22.4,28.3,22.4z M42.8,21.2
	c-0.1-1.7-0.3-2.7-0.6-3.3c-0.5-0.8-0.8-1.5-1.3-2c-0.6-0.7-1.2-1-2-1.3c-0.6-0.2-1.5-0.5-3.3-0.6c-1.9-0.1-2.5-0.1-7.2-0.1
	c-4.7,0-5.3,0-7.2,0.1c-1.7,0.1-2.7,0.3-3.3,0.6c-0.8,0.5-1.5,0.8-2,1.3c-0.7,0.6-1,1.2-1.3,2c-0.2,0.6-0.5,1.5-0.6,3.3
	c-0.1,1.9-0.1,2.5-0.1,7.2c0,4.7,0,5.3,0.1,7.2c0.1,1.7,0.3,2.7,0.6,3.3c0.5,0.8,0.8,1.5,1.3,2c0.6,0.7,1.2,1,2,1.3
	c0.6,0.2,1.5,0.5,3.3,0.6c1.9,0.1,2.5,0.1,7.2,0.1c4.7,0,5.3,0,7.2-0.1c1.7-0.1,2.7-0.3,3.3-0.6c0.8-0.5,1.5-0.8,2-1.3
	c0.7-0.6,1-1.2,1.3-2c0.2-0.6,0.5-1.5,0.6-3.3c0.1-1.9,0.1-2.5,0.1-7.2C42.9,23.6,42.9,23.1,42.8,21.2z M28.3,37.5
	c-5.1,0-9.1-4-9.1-9.1s4-9.1,9.1-9.1c5,0,9.1,4.1,9.1,9.1S33.4,37.5,28.3,37.5z M37.8,21c-1.2,0-2.1-0.9-2.1-2.1s0.9-2.1,2.1-2.1
	c1.1,0,2.1,1,2.1,2.1C39.9,20.1,39,21,37.8,21z M28.3,22.4c-3.4,0-6,2.7-6,6c0,3.4,2.7,6,6,6c3.2,0,5.9-2.8,6-6
	C34.3,25,31.7,22.4,28.3,22.4z M28.3,0C12.6,0,0,12.6,0,28.4s12.6,28.3,28.3,28.3s28.4-12.6,28.4-28.3S44,0,28.3,0z M45.9,35.7
	c-0.1,1.9-0.3,3-0.8,4.3c-0.5,1.1-1.1,2.3-2,3.2c-1,1-1.9,1.6-3.2,2c-1.1,0.5-2.4,0.7-4.3,0.8C33.8,46,33.2,46,28.3,46
	c-4.8,0-5.4,0-7.3-0.1c-1.9-0.1-3-0.3-4.3-0.8c-1.1-0.4-2.3-1.1-3.2-2c-1-1-1.6-1.9-2-3.2c-0.5-1.1-0.7-2.4-0.8-4.3
	c-0.1-1.9-0.1-2.5-0.1-7.3c0-4.8,0-5.4,0.1-7.3c0.1-1.9,0.3-3,0.8-4.3c0.4-1.1,1.1-2.3,2-3.2c1-1,1.9-1.6,3.2-2
	c1.1-0.5,2.4-0.7,4.3-0.8c1.9-0.1,2.5-0.1,7.3-0.1c4.8,0,5.4,0,7.3,0.1c1.9,0.1,3.2,0.3,4.3,0.8c1.1,0.5,2.3,1.1,3.2,2
	c1,1,1.6,1.9,2,3.2c0.5,1.1,0.7,2.4,0.8,4.3C46,23,46,23.5,46,28.4C46,33.2,46,33.7,45.9,35.7z M42.2,17.9c-0.5-0.8-0.8-1.5-1.3-2
	c-0.6-0.7-1.2-1-2-1.3c-0.6-0.2-1.5-0.5-3.3-0.6c-1.9-0.1-2.5-0.1-7.2-0.1c-4.7,0-5.3,0-7.2,0.1c-1.7,0.1-2.7,0.3-3.3,0.6
	c-0.8,0.5-1.5,0.8-2,1.3c-0.7,0.6-1,1.2-1.3,2c-0.2,0.6-0.5,1.5-0.6,3.3c-0.1,1.9-0.1,2.5-0.1,7.2c0,4.7,0,5.3,0.1,7.2
	c0.1,1.7,0.3,2.7,0.6,3.3c0.5,0.8,0.8,1.5,1.3,2c0.6,0.7,1.2,1,2,1.3c0.6,0.2,1.5,0.5,3.3,0.6c1.9,0.1,2.5,0.1,7.2,0.1
	c4.7,0,5.3,0,7.2-0.1c1.7-0.1,2.7-0.3,3.3-0.6c0.8-0.5,1.5-0.8,2-1.3c0.7-0.6,1-1.2,1.3-2c0.2-0.6,0.5-1.5,0.6-3.3
	c0.1-1.9,0.1-2.5,0.1-7.2c0-4.7,0-5.3-0.1-7.2C42.6,19.5,42.4,18.5,42.2,17.9z M28.3,37.5c-5.1,0-9.1-4-9.1-9.1s4-9.1,9.1-9.1
	c5,0,9.1,4.1,9.1,9.1S33.4,37.5,28.3,37.5z M37.8,21c-1.2,0-2.1-0.9-2.1-2.1s0.9-2.1,2.1-2.1c1.1,0,2.1,1,2.1,2.1
	C39.9,20.1,39,21,37.8,21z M28.3,22.4c-3.4,0-6,2.7-6,6c0,3.4,2.7,6,6,6c3.2,0,5.9-2.8,6-6C34.3,25,31.7,22.4,28.3,22.4z M28.3,22.4
	c-3.4,0-6,2.7-6,6c0,3.4,2.7,6,6,6c3.2,0,5.9-2.8,6-6C34.3,25,31.7,22.4,28.3,22.4z M28.3,22.4c-3.4,0-6,2.7-6,6c0,3.4,2.7,6,6,6
	c3.2,0,5.9-2.8,6-6C34.3,25,31.7,22.4,28.3,22.4z M42.8,21.2c-0.1-1.7-0.3-2.7-0.6-3.3c-0.5-0.8-0.8-1.5-1.3-2c-0.6-0.7-1.2-1-2-1.3
	c-0.6-0.2-1.5-0.5-3.3-0.6c-1.9-0.1-2.5-0.1-7.2-0.1c-4.7,0-5.3,0-7.2,0.1c-1.7,0.1-2.7,0.3-3.3,0.6c-0.8,0.5-1.5,0.8-2,1.3
	c-0.7,0.6-1,1.2-1.3,2c-0.2,0.6-0.5,1.5-0.6,3.3c-0.1,1.9-0.1,2.5-0.1,7.2c0,4.7,0,5.3,0.1,7.2c0.1,1.7,0.3,2.7,0.6,3.3
	c0.5,0.8,0.8,1.5,1.3,2c0.6,0.7,1.2,1,2,1.3c0.6,0.2,1.5,0.5,3.3,0.6c1.9,0.1,2.5,0.1,7.2,0.1c4.7,0,5.3,0,7.2-0.1
	c1.7-0.1,2.7-0.3,3.3-0.6c0.8-0.5,1.5-0.8,2-1.3c0.7-0.6,1-1.2,1.3-2c0.2-0.6,0.5-1.5,0.6-3.3c0.1-1.9,0.1-2.5,0.1-7.2
	C42.9,23.6,42.9,23.1,42.8,21.2z M28.3,37.5c-5.1,0-9.1-4-9.1-9.1s4-9.1,9.1-9.1c5,0,9.1,4.1,9.1,9.1S33.4,37.5,28.3,37.5z M37.8,21
	c-1.2,0-2.1-0.9-2.1-2.1s0.9-2.1,2.1-2.1c1.1,0,2.1,1,2.1,2.1C39.9,20.1,39,21,37.8,21z M28.3,22.4c-3.4,0-6,2.7-6,6
	c0,3.4,2.7,6,6,6c3.2,0,5.9-2.8,6-6C34.3,25,31.7,22.4,28.3,22.4z M28.3,22.4c-3.4,0-6,2.7-6,6c0,3.4,2.7,6,6,6c3.2,0,5.9-2.8,6-6
	C34.3,25,31.7,22.4,28.3,22.4z M28.3,22.4c-3.4,0-6,2.7-6,6c0,3.4,2.7,6,6,6c3.2,0,5.9-2.8,6-6C34.3,25,31.7,22.4,28.3,22.4z
	 M42.8,21.2c-0.1-1.7-0.3-2.7-0.6-3.3c-0.5-0.8-0.8-1.5-1.3-2c-0.6-0.7-1.2-1-2-1.3c-0.6-0.2-1.5-0.5-3.3-0.6
	c-1.9-0.1-2.5-0.1-7.2-0.1c-4.7,0-5.3,0-7.2,0.1c-1.7,0.1-2.7,0.3-3.3,0.6c-0.8,0.5-1.5,0.8-2,1.3c-0.7,0.6-1,1.2-1.3,2
	c-0.2,0.6-0.5,1.5-0.6,3.3c-0.1,1.9-0.1,2.5-0.1,7.2c0,4.7,0,5.3,0.1,7.2c0.1,1.7,0.3,2.7,0.6,3.3c0.5,0.8,0.8,1.5,1.3,2
	c0.6,0.7,1.2,1,2,1.3c0.6,0.2,1.5,0.5,3.3,0.6c1.9,0.1,2.5,0.1,7.2,0.1c4.7,0,5.3,0,7.2-0.1c1.7-0.1,2.7-0.3,3.3-0.6
	c0.8-0.5,1.5-0.8,2-1.3c0.7-0.6,1-1.2,1.3-2c0.2-0.6,0.5-1.5,0.6-3.3c0.1-1.9,0.1-2.5,0.1-7.2C42.9,23.6,42.9,23.1,42.8,21.2z
	 M28.3,37.5c-5.1,0-9.1-4-9.1-9.1s4-9.1,9.1-9.1c5,0,9.1,4.1,9.1,9.1S33.4,37.5,28.3,37.5z M37.8,21c-1.2,0-2.1-0.9-2.1-2.1
	s0.9-2.1,2.1-2.1c1.1,0,2.1,1,2.1,2.1C39.9,20.1,39,21,37.8,21z M28.3,22.4c-3.4,0-6,2.7-6,6c0,3.4,2.7,6,6,6c3.2,0,5.9-2.8,6-6
	C34.3,25,31.7,22.4,28.3,22.4z M28.3,22.4c-3.4,0-6,2.7-6,6c0,3.4,2.7,6,6,6c3.2,0,5.9-2.8,6-6C34.3,25,31.7,22.4,28.3,22.4z
	 M28.3,22.4c-3.4,0-6,2.7-6,6c0,3.4,2.7,6,6,6c3.2,0,5.9-2.8,6-6C34.3,25,31.7,22.4,28.3,22.4z"/>
<path class="st1" d="M45.9,21c-0.1-1.9-0.3-3.2-0.8-4.3c-0.5-1.2-1-2.1-2-3.2c-0.9-0.9-2-1.6-3.2-2c-1.1-0.5-2.4-0.7-4.3-0.8
	c-1.9-0.1-2.5-0.1-7.3-0.1c-4.8,0-5.4,0-7.3,0.1c-1.9,0.1-3.1,0.3-4.3,0.8c-1.2,0.5-2.1,1-3.2,2c-0.9,0.9-1.6,2-2,3.2
	c-0.5,1.2-0.7,2.4-0.8,4.3c-0.1,1.9-0.1,2.5-0.1,7.3c0,4.8,0,5.4,0.1,7.3c0.1,1.9,0.3,3.1,0.8,4.3c0.4,1.2,1,2.1,2,3.2
	c0.9,0.9,2,1.6,3.2,2c1.2,0.5,2.4,0.7,4.3,0.8C23,46,23.5,46,28.3,46c4.8,0,5.4,0,7.3-0.1c1.9-0.1,3.2-0.3,4.3-0.8
	c1.2-0.4,2.1-1,3.2-2c0.9-0.9,1.6-2,2-3.2c0.5-1.2,0.7-2.4,0.8-4.3c0.1-1.9,0.1-2.5,0.1-7.3C46,23.5,46,23,45.9,21z M42.8,35.5
	c-0.1,1.8-0.3,2.7-0.6,3.3c-0.3,0.8-0.7,1.5-1.3,2c-0.6,0.6-1.2,0.9-2,1.3c-0.6,0.2-1.6,0.5-3.3,0.6c-1.9,0.1-2.5,0.1-7.2,0.1
	c-4.7,0-5.3,0-7.2-0.1c-1.8-0.1-2.7-0.3-3.3-0.6c-0.8-0.3-1.5-0.7-2-1.3c-0.6-0.6-0.9-1.2-1.3-2c-0.2-0.6-0.5-1.6-0.6-3.3
	c-0.1-1.9-0.1-2.5-0.1-7.2c0-4.7,0-5.3,0.1-7.2c0.1-1.8,0.3-2.7,0.6-3.3c0.3-0.8,0.7-1.5,1.3-2c0.6-0.6,1.2-0.9,2-1.3
	c0.6-0.2,1.6-0.5,3.3-0.6c1.9-0.1,2.5-0.1,7.2-0.1c4.7,0,5.3,0,7.2,0.1c1.8,0.1,2.7,0.3,3.3,0.6c0.8,0.3,1.5,0.7,2,1.3
	c0.6,0.6,0.9,1.2,1.3,2c0.2,0.6,0.5,1.6,0.6,3.3c0.1,1.9,0.1,2.5,0.1,7.2C42.9,33.1,42.9,33.6,42.8,35.5z"/>
<circle class="st1" cx="37.8" cy="18.9" r="2.1"/>
<path class="st1" d="M28.3,19.2c-5.1,0-9.1,4.1-9.1,9.1s4,9.1,9.1,9.1s9.1-4,9.1-9.1S33.3,19.2,28.3,19.2z M28.3,34.3
	c-3.3,0-6-2.6-6-6c0-3.3,2.6-6,6-6c3.4,0,6,2.6,6,6C34.2,31.5,31.5,34.3,28.3,34.3z"/>
</svg>
