<?xml version="1.0" encoding="utf-8"?>
<!-- Generator: Adobe Illustrator 24.1.1, SVG Export Plug-In . SVG Version: 6.00 Build 0)  -->
<svg version="1.1" xmlns="http://www.w3.org/2000/svg" xmlns:xlink="http://www.w3.org/1999/xlink" x="0px" y="0px"
	 viewBox="0 0 56.7 56.7" style="enable-background:new 0 0 56.7 56.7;" xml:space="preserve">
<style type="text/css">
	.st0{fill:#FF5033;}
	.st1{fill:#FFE9E9;}
</style>
<g id="Layer_1">
	<g>
		<circle class="st0" cx="28.4" cy="28.4" r="28.4"/>
		<path class="st1" d="M47.2,28.4c0-2.3-1.9-4.1-4.1-4.1c-1.1,0-2.1,0.4-2.9,1.2c-2.8-2-6.7-3.4-11.1-3.5l1.9-8.9l6.2,1.3
			c0.1,1.6,1.4,2.8,2.9,2.8c1.6,0,3-1.3,3-3s-1.3-3-3-3c-1.2,0-2.2,0.7-2.6,1.6l-6.9-1.5c-0.2,0-0.4,0-0.6,0.1
			c-0.2,0.1-0.3,0.3-0.3,0.5l-2.1,9.9c-4.4,0.1-8.4,1.4-11.2,3.5c-0.7-0.7-1.7-1.2-2.9-1.2c-2.3,0-4.1,1.9-4.1,4.1
			c0,1.7,1,3.1,2.4,3.8c-0.1,0.4-0.1,0.8-0.1,1.3c0,6.4,7.4,11.5,16.5,11.5c9.1,0,16.5-5.2,16.5-11.5c0-0.4,0-0.8-0.1-1.2
			C46.2,31.5,47.2,30,47.2,28.4z M18.9,31.3c0-1.6,1.3-3,3-3c1.6,0,3,1.3,3,3c0,1.6-1.3,3-3,3C20.2,34.3,18.9,32.9,18.9,31.3z
			 M35.4,39.1c-2,2-5.9,2.2-7,2.2c-1.1,0-5-0.2-7-2.2c-0.3-0.3-0.3-0.8,0-1.1c0.3-0.3,0.8-0.3,1.1,0c1.3,1.3,4,1.7,5.9,1.7
			c1.9,0,4.7-0.5,5.9-1.7c0.3-0.3,0.8-0.3,1.1,0C35.7,38.3,35.7,38.8,35.4,39.1z M34.8,34.3c-1.6,0-3-1.3-3-3c0-1.6,1.3-3,3-3
			c1.6,0,3,1.3,3,3C37.8,32.9,36.5,34.3,34.8,34.3z"/>
	</g>
</g>
<g id="Capa_2">
</g>
</svg>
