<?xml version="1.0" encoding="utf-8"?>
<!-- Generator: Adobe Illustrator 24.1.1, SVG Export Plug-In . SVG Version: 6.00 Build 0)  -->
<svg version="1.1" id="Layer_1" xmlns="http://www.w3.org/2000/svg" xmlns:xlink="http://www.w3.org/1999/xlink" x="0px" y="0px"
	 viewBox="0 0 56.7 56.7" style="enable-background:new 0 0 56.7 56.7;" xml:space="preserve">
<style type="text/css">
	.st0{fill-rule:evenodd;clip-rule:evenodd;fill:#7C66FF;}
	.st1{fill-rule:evenodd;clip-rule:evenodd;fill:#E6FFE6;}
</style>
<path class="st0" d="M28.3,0C12.8,0,0,12.7,0,28.4C0,44,12.8,56.7,28.3,56.7c15.6,0,28.4-12.6,28.4-28.3C56.7,12.6,44,0,28.3,0z
	 M42.7,23.1V24c0,9-6.8,19.4-19.4,19.4c-3.9,0-7.4-1.1-10.3-2.8c0.5,0.1,1,0.1,1.6,0.1c3.2,0,6.2-1.1,8.4-3c-3-0.1-5.5-2-6.4-4.8
	C17.1,33,17.5,33,18,33c0.7,0,1.3-0.1,1.8-0.2c-3.1-0.7-5.5-3.4-5.5-6.7V26c0.9,0.5,1.9,0.8,3.1,0.8c-1.8-1.3-3.1-3.3-3.1-5.7
	c0-1.3,0.3-2.4,0.9-3.4c3.3,4.2,8.3,6.9,14,7.2c-0.1-0.6-0.2-1-0.2-1.6c0-3.8,3.1-6.8,6.8-6.8c2,0,3.8,0.8,5,2.2
	c1.6-0.3,3-0.9,4.3-1.7c-0.5,1.6-1.6,3-3,3.8c1.4-0.1,2.6-0.5,3.9-1C45.2,21,44.1,22.2,42.7,23.1z"/>
<path class="st1" d="M46.1,19.6c-0.9,1.4-2,2.6-3.4,3.5V24c0,9-6.8,19.4-19.4,19.4c-3.9,0-7.4-1.1-10.3-2.8c0.5,0.1,1,0.1,1.6,0.1
	c3.2,0,6.2-1.1,8.4-3c-3-0.1-5.5-2-6.4-4.8C17.1,33,17.5,33,18,33c0.7,0,1.3-0.1,1.8-0.2c-3.1-0.7-5.5-3.4-5.5-6.7V26
	c0.9,0.5,1.9,0.8,3.1,0.8c-1.8-1.3-3.1-3.3-3.1-5.7c0-1.3,0.3-2.4,0.9-3.4c3.3,4.2,8.3,6.9,14,7.2c-0.1-0.6-0.2-1-0.2-1.6
	c0-3.8,3.1-6.8,6.8-6.8c2,0,3.8,0.8,5,2.2c1.6-0.3,3-0.9,4.3-1.7c-0.5,1.6-1.6,3-3,3.8C43.6,20.5,44.9,20.2,46.1,19.6z"/>
</svg>
