<?xml version="1.0" encoding="utf-8"?>
<!-- Generator: Adobe Illustrator 24.1.1, SVG Export Plug-In . SVG Version: 6.00 Build 0)  -->
<svg version="1.1" id="Capa_1" xmlns="http://www.w3.org/2000/svg" xmlns:xlink="http://www.w3.org/1999/xlink" x="0px" y="0px"
	 viewBox="0 0 48 48" style="enable-background:new 0 0 48 48;" xml:space="preserve">
<style type="text/css">
	.st0{fill:#DCFFDC;}
</style>
<path class="st0" d="M24,4C13,4,4,13,4,24c0,3.5,0.9,7,2.7,10L4,44l10.5-2.5c2.9,1.6,6.2,2.4,9.5,2.4l0,0c11,0,20-9,20-20
	c0-5.3-2.1-10.4-5.8-14.1C34.4,6.1,29.4,4,24,4z M24,8c4.3,0,8.3,1.7,11.3,4.7S40,19.7,40,24c0,8.8-7.2,16-16,16
	c-2.7,0-5.3-0.7-7.6-1.9L15,37.3l-1.5,0.4l-3.9,0.9l1-3.6l0.4-1.6L10.2,32C8.8,29.5,8,26.8,8,24C8,15.2,15.2,8,24,8z M17,14.8
	c-0.3,0-0.9,0.1-1.3,0.6c-0.5,0.5-1.8,1.7-1.8,4.2s1.8,4.8,2,5.2c0.2,0.3,3.5,5.5,8.5,7.5c4.2,1.7,5.1,1.3,6,1.3
	c0.9-0.1,3-1.2,3.4-2.4c0.4-1.2,0.4-2.2,0.3-2.4c-0.1-0.2-0.5-0.3-1-0.6c-0.5-0.3-3-1.5-3.4-1.6s-0.8-0.3-1.1,0.3
	c-0.3,0.5-1.3,1.6-1.6,2c-0.3,0.3-0.6,0.4-1.1,0.1s-2.1-0.8-4-2.5c-1.5-1.3-2.5-3-2.8-3.5s0-0.8,0.2-1s0.5-0.6,0.7-0.9
	s0.3-0.5,0.5-0.8s0.1-0.6,0-0.9s-1.1-2.7-1.5-3.7c-0.4-0.8-0.8-0.8-1.1-0.9C17.6,14.7,17.3,14.8,17,14.8z"/>
</svg>
