<?xml version="1.0" encoding="utf-8"?>
<!-- Generator: Adobe Illustrator 24.1.1, SVG Export Plug-In . SVG Version: 6.00 Build 0)  -->
<svg version="1.1" id="Layer_1" xmlns="http://www.w3.org/2000/svg" xmlns:xlink="http://www.w3.org/1999/xlink" x="0px" y="0px"
	 viewBox="0 0 56.7 56.7" style="enable-background:new 0 0 56.7 56.7;" xml:space="preserve">
<style type="text/css">
	.st0{fill-rule:evenodd;clip-rule:evenodd;fill:#FF6666;}
	.st1{fill-rule:evenodd;clip-rule:evenodd;fill:#FFE9E9;}
</style>
<path class="st0" d="M24.8,23.1v10.6l9.3-5.3L24.8,23.1z M24.8,23.1v10.6l9.3-5.3L24.8,23.1z M28.3,0C12.7,0,0,12.7,0,28.4
	C0,44,12.7,56.7,28.3,56.7C44,56.7,56.7,44,56.7,28.4C56.7,12.7,44,0,28.3,0z M45.5,36.8c-0.3,1.4-1.5,2.6-3.1,3.1
	c-2.8,0.8-13.9,0.8-13.9,0.8s-11.1,0-13.9-0.8c-1.4-0.3-2.7-1.5-3.1-3.1c-0.8-2.8-0.8-8.5-0.8-8.5s0-5.7,0.8-8.5
	c0.3-1.4,1.6-2.6,3.1-3.1C17.3,16,28.5,16,28.5,16s11.1,0,13.9,0.8c1.4,0.3,2.7,1.5,3.1,3.1c0.7,2.8,0.8,8.5,0.8,8.5
	S46.2,34.1,45.5,36.8z M24.8,33.6l9.3-5.3l-9.3-5.3V33.6z"/>
<path class="st1" d="M45.5,19.9c-0.4-1.5-1.7-2.8-3.1-3.1C39.6,16,28.5,16,28.5,16s-11.1,0-13.9,0.8c-1.5,0.4-2.8,1.6-3.1,3.1
	c-0.8,2.8-0.8,8.5-0.8,8.5s0,5.7,0.8,8.5c0.4,1.5,1.7,2.8,3.1,3.1c2.8,0.8,13.9,0.8,13.9,0.8s11.1,0,13.9-0.8
	c1.5-0.4,2.8-1.6,3.1-3.1c0.8-2.8,0.8-8.5,0.8-8.5S46.1,22.6,45.5,19.9z M24.8,33.6V23.1l9.3,5.3L24.8,33.6z"/>
</svg>
